<svg width="26" height="26" viewBox="0 0 26 26" fill="none" xmlns="http://www.w3.org/2000/svg">
    <path d="M3.5 13C7.91827 13 10.5 22 12.5 22C14.5 22 17.0817 13 21.5 13L3.5 13Z" fill="white" />
    <path
        d="M6.17445 14C5.36368 13.391 4.47671 13 3.5 13V14C4.28509 14 5.05434 14.3522 5.8465 15.0163C6.64301 15.6841 7.38383 16.6014 8.0968 17.5864C8.35148 17.9382 8.6119 18.3129 8.86992 18.6841L8.86993 18.6841C9.29396 19.2942 9.71152 19.8949 10.0865 20.3698C10.3987 20.7651 10.735 21.1457 11.0917 21.434C11.437 21.7131 11.9167 22 12.5 22C13.0834 22 13.563 21.7131 13.9083 21.434C14.265 21.1456 14.6013 20.7651 14.9135 20.3698C15.2885 19.8949 15.706 19.2942 16.1301 18.6841L16.1301 18.6841L16.1301 18.684C16.3881 18.3128 16.6485 17.9382 16.9032 17.5864C17.6162 16.6014 18.357 15.6841 19.1535 15.0163C19.9457 14.3522 20.7149 14 21.5 14V13C20.5233 13 19.6363 13.391 18.8255 14C17.4438 15.0379 16.2834 16.7093 15.2772 18.1586L15.2772 18.1586C14.2029 19.7059 13.3044 21 12.5 21C11.6956 21 10.7971 19.7059 9.72282 18.1586C8.71659 16.7093 7.55616 15.0379 6.17445 14Z"
        fill="#eaeaea" />
</svg>
    